HIERARCHY
ROOT SpineBase
{
  OFFSET 0.000000 0.000000 0.000000
  CHANNELS 6 Xposition Yposition Zposition Zrotation Xrotation Yrotation
  JOINT SpineMid
  {
    OFFSET -0.000000 32.158722 0.000000
    CHANNELS 3 Zrotation Xrotation Yrotation
    JOINT SpineShoulder
    {
      OFFSET 0.120229 23.901260 -0.879485
      CHANNELS 3 Zrotation Xrotation Yrotation
      JOINT Neck
      {
        OFFSET 0.074558 7.904573 -0.643307
        CHANNELS 3 Zrotation Xrotation Yrotation
        JOINT Head
        {
          OFFSET 1.846466 13.122062 0.910589
          CHANNELS 3 Zrotation Xrotation Yrotation
          End Site
          {
            OFFSET 0 0 0
          }
        }
      }
      JOINT ShoulderLeft
      {
        OFFSET -11.131294 -4.564222 -2.105792
        CHANNELS 3 Zrotation Xrotation Yrotation
        JOINT ElbowLeft
        {
          OFFSET 19.913644 -22.139804 -12.143631
          CHANNELS 3 Zrotation Xrotation Yrotation
          JOINT WristLeft
          {
            OFFSET 6.512707 -25.843983 2.443438
            CHANNELS 3 Zrotation Xrotation Yrotation
            JOINT HandLeft
            {
              OFFSET 0.220789 -7.460107 2.560100
              CHANNELS 3 Zrotation Xrotation Yrotation
              JOINT HandTipLeft
              {
                OFFSET 0.386591 -7.915685 1.051316
                CHANNELS 3 Zrotation Xrotation Yrotation
                End Site
                {
                  OFFSET 0 0 0
                }
              }
              JOINT ThumbLeft
              {
                OFFSET -1.865096 2.271511 1.069304
                CHANNELS 3 Zrotation Xrotation Yrotation
                End Site
                {
                  OFFSET 0 0 0
                }
              }
            }
          }
        }
      }
      JOINT ShoulderRight
      {
        OFFSET 10.095168 -8.251651 -11.300452
        CHANNELS 3 Zrotation Xrotation Yrotation
        JOINT ElbowRight
        {
          OFFSET 3.217477 -28.116855 -4.053154
          CHANNELS 3 Zrotation Xrotation Yrotation
          JOINT WristRight
          {
            OFFSET 2.115807 -21.944099 5.225993
            CHANNELS 3 Zrotation Xrotation Yrotation
            JOINT HandRight
            {
              OFFSET -0.795513 -1.460807 1.464857
              CHANNELS 3 Zrotation Xrotation Yrotation
              JOINT HandTipRight
              {
                OFFSET 1.213498 -8.291335 1.268684
                CHANNELS 3 Zrotation Xrotation Yrotation
                End Site
                {
                  OFFSET 0 0 0
                }
              }
              JOINT ThumbRight
              {
                OFFSET -2.292532 0.297721 1.500994
                CHANNELS 3 Zrotation Xrotation Yrotation
                End Site
                {
                  OFFSET 0 0 0
                }
              }
            }
          }
        }
      }
    }
  }
  JOINT HipLeft
  {
    OFFSET -5.588006 1.130197 -0.860880
    CHANNELS 3 Zrotation Xrotation Yrotation
    JOINT KneeLeft
    {
      OFFSET -3.651287 -40.740457 9.418614
      CHANNELS 3 Zrotation Xrotation Yrotation
      JOINT AnkleLeft
      {
        OFFSET -8.244965 -30.283031 1.846944
        CHANNELS 3 Zrotation Xrotation Yrotation
        JOINT FootLeft
        {
          OFFSET -3.573825 -2.785255 -12.870775
          CHANNELS 3 Zrotation Xrotation Yrotation
          End Site
          {
            OFFSET 0 0 0
          }
        }
      }
    }
  }
  JOINT HipRight
  {
    OFFSET 7.376468 0.943634 -7.022931
    CHANNELS 3 Zrotation Xrotation Yrotation
    JOINT KneeRight
    {
      OFFSET -1.912342 -34.299792 1.122250
      CHANNELS 3 Zrotation Xrotation Yrotation
      JOINT AnkleRight
      {
        OFFSET -5.090021 -39.099041 -1.461653
        CHANNELS 3 Zrotation Xrotation Yrotation
        JOINT FootRight
        {
          OFFSET -3.768885 -2.654602 -12.807346
          CHANNELS 3 Zrotation Xrotation Yrotation
          End Site
          {
            OFFSET 0 0 0
          }
        }
      }
    }
  }
}
MOTION
Frames: 9
Frame Time: 0.033333
-24.046076 78.507233 252.236220 -0.461927 -0.849394 -14.313437 0.237637 0.937211 14.308070 -0.000000 0.000000 0.000000 3.990741 2.667154 -0.747807 0.000000 0.000000 0.000000 -6.797197 -5.426530 -1.601498 6.113144 3.981067 0.545234 -2.113059 -2.257358 -0.603699 9.892792 6.167175 1.381218 0.000000 0.000000 0.000000 0.000000 0.000000 0.000000 -2.649273 -3.659207 -0.122433 4.030720 3.718287 0.198397 4.447756 12.738470 -2.527530 -8.733334 -13.309694 -0.371783 0.000000 0.000000 0.000000 0.000000 0.000000 0.000000 3.261816 0.540171 15.025367 0.868737 -6.646183 1.810055 -0.077251 -6.352406 -2.303365 0.000000 0.000000 0.000000 2.357198 10.016085 13.781106 -5.288406 -8.069122 -0.123260 5.127133 -12.493085 -4.381524 0.000000 0.000000 0.000000
-23.954529 78.516067 252.300392 -0.344708 -0.878591 -14.021297 0.121597 0.935923 14.017661 -0.000000 0.000000 0.000000 4.301965 2.638048 -0.771883 0.000000 0.000000 0.000000 -6.604691 -5.233836 -1.501900 5.625163 3.682869 0.456829 -1.388297 -2.232847 -0.412663 9.883993 7.029068 1.251588 0.000000 0.000000 0.000000 0.000000 0.000000 0.000000 -2.343059 -3.708826 -0.163769 3.328044 3.763435 0.187759 3.298661 11.128590 -2.822911 -6.244685 -11.895333 0.857906 0.000000 0.000000 0.000000 0.000000 0.000000 0.000000 2.374185 -1.125368 14.637152 2.383113 -3.734415 1.431496 -2.013316 -0.243633 -3.632649 0.000000 0.000000 0.000000 2.050476 9.914613 13.504278 -4.996518 -8.030346 -0.093784 5.868765 -15.308880 -4.658400 0.000000 0.000000 0.000000
-23.973369 78.516773 252.348168 -0.312685 -0.911703 -13.627126 0.089107 0.959702 13.623892 0.177516 -0.796023 0.023176 4.205830 3.474432 -0.868596 0.000000 0.000000 0.000000 -6.726301 -4.328048 -1.340403 5.570705 3.530208 0.373440 -1.020503 -2.417406 -0.290869 9.805751 6.981994 1.131291 0.000000 0.000000 0.000000 0.000000 0.000000 0.000000 -2.412905 -2.995362 -0.176609 3.132188 3.258146 0.146070 0.655123 11.582513 -5.369697 -1.939917 -12.038248 4.374993 0.000000 0.000000 0.000000 0.000000 0.000000 0.000000 1.478520 -2.418941 14.090368 4.258097 -1.569844 1.193737 -3.445354 1.870085 -3.708161 0.000000 0.000000 0.000000 1.993883 9.873326 13.111683 -4.837428 -7.975059 -0.080369 5.809067 -15.348304 -4.594287 0.000000 0.000000 0.000000
-24.013819 78.490414 252.382126 -0.283779 -0.947890 -13.229616 0.184996 0.158069 13.227224 0.282432 -0.017299 0.021779 4.120385 3.619330 -0.886596 0.000000 0.000000 0.000000 -6.468956 -4.076925 -1.298216 5.027354 3.267812 0.354167 -0.662176 -2.734208 -0.236247 10.104845 6.382787 1.086309 0.000000 0.000000 0.000000 0.000000 0.000000 0.000000 -2.102001 -2.920947 -0.219511 1.876822 3.780302 0.099567 2.971132 8.109352 -1.808039 -4.008550 -8.513922 0.980758 0.000000 0.000000 0.000000 0.000000 0.000000 0.000000 0.524354 -3.792999 13.513808 6.334410 0.705004 0.882239 -4.659820 2.139007 -3.506850 0.000000 0.000000 0.000000 2.049799 9.864952 12.708210 -4.947481 -7.829387 -0.106212 5.138956 -12.744216 -4.207952 0.000000 0.000000 0.000000
-24.110944 78.447878 252.399861 -0.336062 -0.967549 -12.801684 0.223796 0.159824 12.798005 0.309089 -0.021933 0.023186 4.056510 3.723258 -0.897420 0.000000 0.000000 0.000000 -6.094416 -3.915960 -1.373212 4.271618 3.060088 0.441601 -0.314670 -2.942690 -0.208256 10.179367 6.576979 1.059463 0.000000 0.000000 0.000000 0.000000 0.000000 0.000000 -2.130011 -2.606406 -0.179865 2.437299 4.451720 0.252273 5.493859 6.784199 1.427939 -7.069461 -7.253409 -2.561208 0.000000 0.000000 0.000000 0.000000 0.000000 0.000000 -0.203208 -5.039565 12.926723 8.166902 2.809356 0.507536 -5.399336 0.454511 -2.998960 0.000000 0.000000 0.000000 2.381642 9.870608 12.261893 -5.269377 -7.675091 -0.151384 2.937505 -4.953951 -2.860859 0.000000 0.000000 0.000000
-24.308028 78.411402 252.399377 -0.494391 -0.980334 -12.887565 0.312792 0.169040 12.879223 0.342868 -0.019208 0.022587 3.923563 3.811080 -0.889502 0.000000 0.000000 0.000000 -5.590317 -3.782730 -1.510782 3.298915 2.865734 0.589757 0.240166 -2.914930 -0.132890 9.970128 6.788346 1.028901 0.000000 0.000000 0.000000 0.000000 0.000000 0.000000 -1.839803 -2.176594 -0.156743 1.698631 4.826744 0.250168 9.988236 8.252923 4.496757 -10.935875 -9.041409 -6.121872 0.000000 0.000000 0.000000 0.000000 0.000000 0.000000 -0.376029 -6.072516 12.950900 9.185750 4.430214 0.156957 -6.436961 3.753554 -4.519926 0.000000 0.000000 0.000000 2.895301 10.072430 12.313833 -5.653557 -7.794131 -0.184901 2.555970 -3.558898 -2.875390 0.000000 0.000000 0.000000
-24.488181 78.381870 252.395515 -0.620361 -0.993681 -12.576919 0.365373 0.164895 12.564259 0.356072 -0.008494 0.020082 3.794770 3.854525 -0.869389 0.000000 0.000000 0.000000 -4.964692 -3.507754 -1.549635 2.596605 2.712066 0.712343 0.618466 -2.892955 -0.064217 10.061977 5.924756 1.004855 0.000000 0.000000 0.000000 0.000000 0.000000 0.000000 -2.073521 -1.523886 -0.027816 2.416089 4.555340 0.245380 12.291217 10.634605 5.553382 -14.748479 -10.540034 -8.350473 0.000000 0.000000 0.000000 0.000000 0.000000 0.000000 -0.475690 -6.592072 12.600024 10.414790 5.616958 -0.190782 -7.755483 3.151238 -2.741079 0.000000 0.000000 0.000000 3.564407 10.193126 11.960207 -6.110197 -7.881699 -0.220513 3.694611 -7.415358 -3.610005 0.000000 0.000000 0.000000
-24.643949 78.338066 252.391055 -0.716530 -0.997626 -12.148362 0.384708 0.146793 12.131797 0.343792 0.007295 0.015413 3.745999 3.862826 -0.847164 0.000000 0.000000 0.000000 -4.307056 -3.289000 -1.636552 1.968782 2.690812 0.902452 0.829196 -2.856777 -0.048924 10.015213 6.111253 0.985153 0.000000 0.000000 0.000000 0.000000 0.000000 0.000000 -1.846144 -1.219168 -0.000364 2.345269 4.490831 0.273353 13.362704 11.606524 6.000619 -16.658078 -11.788737 -9.520580 0.000000 0.000000 0.000000 0.000000 0.000000 0.000000 -0.361775 -6.588844 12.188193 10.786310 5.869560 -0.310739 -7.547473 -1.165274 -0.800584 0.000000 0.000000 0.000000 4.106841 10.167238 11.503459 -6.504681 -7.854803 -0.251669 2.425650 -3.004413 -2.824711 0.000000 0.000000 0.000000
-24.763778 78.293944 252.386300 -0.785827 -0.993598 -11.638877 0.372851 0.121743 11.618798 0.307055 0.030506 0.008702 3.847873 3.829606 -0.830776 0.000000 0.000000 0.000000 -3.813406 -3.277765 -1.808625 1.378720 2.842469 1.148351 1.579092 -2.546927 0.131727 9.547087 5.515912 0.891586 0.000000 0.000000 0.000000 0.000000 0.000000 0.000000 -1.928212 -1.056573 0.060448 3.157643 4.164065 0.321948 13.367981 12.787068 5.674188 -17.854273 -12.829769 -9.991079 0.000000 0.000000 0.000000 0.000000 0.000000 0.000000 0.545938 -5.280772 11.880802 8.901673 4.210163 -0.005345 -6.882785 0.124528 -1.476203 0.000000 0.000000 0.000000 4.626869 9.975313 10.979091 -6.999130 -7.570874 -0.304390 3.000654 -4.254097 -3.267464 0.000000 0.000000 0.000000
